<svg width="20" height="21" viewBox="0 0 20 21" fill="none" xmlns="http://www.w3.org/2000/svg">
<path d="M18.3083 15.775C18.3083 16.075 18.2417 16.3833 18.1 16.6833C17.9583 16.9833 17.775 17.2666 17.5333 17.5333C17.125 17.9833 16.675 18.3083 16.1667 18.5166C15.6667 18.725 15.125 18.8333 14.5417 18.8333C13.6917 18.8333 12.7833 18.6333 11.825 18.225C10.8667 17.8166 9.90832 17.2666 8.95832 16.575C7.99999 15.875 7.09166 15.1 6.22499 14.2416C5.36666 13.375 4.59166 12.4666 3.89999 11.5166C3.21666 10.5666 2.66666 9.61663 2.26666 8.67496C1.86666 7.72496 1.66666 6.81663 1.66666 5.94996C1.66666 5.38329 1.76666 4.84163 1.96666 4.34163C2.16666 3.83329 2.48332 3.36663 2.92499 2.94996C3.45832 2.42496 4.04166 2.16663 4.65832 2.16663C4.89166 2.16663 5.12499 2.21663 5.33332 2.31663C5.54999 2.41663 5.74166 2.56663 5.89166 2.78329L7.82499 5.50829C7.97499 5.71663 8.08332 5.90829 8.15832 6.09163C8.23332 6.26663 8.27499 6.44163 8.27499 6.59996C8.27499 6.79996 8.21666 6.99996 8.09999 7.19163C7.99166 7.38329 7.83332 7.58329 7.63332 7.78329L6.99999 8.44163C6.90832 8.53329 6.86666 8.64163 6.86666 8.77496C6.86666 8.84163 6.87499 8.89996 6.89166 8.96663C6.91666 9.03329 6.94166 9.08329 6.95832 9.13329C7.10832 9.40829 7.36666 9.76663 7.73332 10.2C8.10832 10.6333 8.50832 11.075 8.94166 11.5166C9.39166 11.9583 9.82499 12.3666 10.2667 12.7416C10.7 13.1083 11.0583 13.3583 11.3417 13.5083C11.3833 13.525 11.4333 13.55 11.4917 13.575C11.5583 13.6 11.625 13.6083 11.7 13.6083C11.8417 13.6083 11.95 13.5583 12.0417 13.4666L12.675 12.8416C12.8833 12.6333 13.0833 12.475 13.275 12.375C13.4667 12.2583 13.6583 12.2 13.8667 12.2C14.025 12.2 14.1917 12.2333 14.375 12.3083C14.5583 12.3833 14.75 12.4916 14.9583 12.6333L17.7167 14.5916C17.9333 14.7416 18.0833 14.9166 18.175 15.125C18.2583 15.3333 18.3083 15.5416 18.3083 15.775Z" stroke="#DEDEDE" stroke-width="1.25" stroke-miterlimit="10"/>
</svg>
