<svg width="184" height="21" viewBox="0 0 184 21" fill="none" xmlns="http://www.w3.org/2000/svg">
<path d="M14.1667 17.5833H5.83332C3.33332 17.5833 1.66666 16.3333 1.66666 13.4166V7.58329C1.66666 4.66663 3.33332 3.41663 5.83332 3.41663H14.1667C16.6667 3.41663 18.3333 4.66663 18.3333 7.58329V13.4166C18.3333 16.3333 16.6667 17.5833 14.1667 17.5833Z" stroke="#DEDEDE" stroke-width="1.25" stroke-miterlimit="10" stroke-linecap="round" stroke-linejoin="round"/>
<path d="M14.1667 8L11.5583 10.0833C10.7 10.7667 9.29167 10.7667 8.43334 10.0833L5.83334 8" stroke="#DEDEDE" stroke-width="1.25" stroke-miterlimit="10" stroke-linecap="round" stroke-linejoin="round"/>
<path d="M31.1309 15.1299C30.666 15.1299 30.2467 15.041 29.873 14.8633C29.5039 14.6855 29.21 14.4326 28.9912 14.1045C28.777 13.7764 28.6699 13.389 28.6699 12.9424V12.9287C28.6699 12.4912 28.7747 12.1175 28.9844 11.8076C29.194 11.4932 29.4993 11.2471 29.9004 11.0693C30.3014 10.8916 30.7868 10.7868 31.3564 10.7549L34.0635 10.5908V11.541L31.5 11.7051C30.9395 11.737 30.5293 11.8532 30.2695 12.0537C30.0143 12.2542 29.8867 12.5368 29.8867 12.9014V12.915C29.8867 13.2887 30.028 13.5804 30.3105 13.79C30.5931 13.9951 30.9486 14.0977 31.377 14.0977C31.7826 14.0977 32.1426 14.0179 32.457 13.8584C32.7715 13.6943 33.0176 13.4733 33.1953 13.1953C33.3776 12.9173 33.4688 12.6029 33.4688 12.252V9.95508C33.4688 9.49935 33.3298 9.15299 33.0518 8.91602C32.7783 8.67448 32.3659 8.55371 31.8145 8.55371C31.3724 8.55371 31.0101 8.63346 30.7275 8.79297C30.445 8.94792 30.2559 9.16895 30.1602 9.45605L30.1533 9.47656H28.9639L28.9707 9.43555C29.0345 9.04818 29.194 8.71094 29.4492 8.42383C29.709 8.13216 30.0439 7.90658 30.4541 7.74707C30.8643 7.58301 31.3314 7.50098 31.8555 7.50098C32.457 7.50098 32.9652 7.59896 33.3799 7.79492C33.7992 7.99089 34.1159 8.27344 34.3301 8.64258C34.5488 9.00716 34.6582 9.44466 34.6582 9.95508V15H33.4688V13.9131H33.3594C33.2044 14.1729 33.0153 14.3939 32.792 14.5762C32.5732 14.7585 32.3249 14.8975 32.0469 14.9932C31.7689 15.0843 31.4635 15.1299 31.1309 15.1299ZM36.832 15V7.63086H38.0215V8.73828H38.1309C38.3177 8.34635 38.5866 8.04329 38.9375 7.8291C39.2884 7.61035 39.735 7.50098 40.2773 7.50098C41.1068 7.50098 41.7425 7.73796 42.1846 8.21191C42.6312 8.68132 42.8545 9.35352 42.8545 10.2285V15H41.665V10.5156C41.665 9.85026 41.5238 9.35807 41.2412 9.03906C40.9632 8.71549 40.5303 8.55371 39.9424 8.55371C39.5505 8.55371 39.2109 8.63802 38.9238 8.80664C38.6367 8.97526 38.4134 9.21452 38.2539 9.52441C38.099 9.83431 38.0215 10.2057 38.0215 10.6387V15H36.832ZM48.043 17.5977C47.4505 17.5977 46.9333 17.5133 46.4912 17.3447C46.0492 17.1807 45.696 16.946 45.4316 16.6406C45.1719 16.3398 45.0101 15.9889 44.9463 15.5879L44.96 15.5811H46.1904L46.1973 15.5879C46.2611 15.8659 46.4525 16.0938 46.7715 16.2715C47.0905 16.4538 47.5143 16.5449 48.043 16.5449C48.7038 16.5449 49.2188 16.3945 49.5879 16.0938C49.9616 15.7975 50.1484 15.3783 50.1484 14.8359V13.3457H50.0391C49.8841 13.6146 49.6904 13.8447 49.458 14.0361C49.2256 14.2275 48.9635 14.3734 48.6719 14.4736C48.3802 14.5693 48.0658 14.6172 47.7285 14.6172C47.0951 14.6172 46.5459 14.4668 46.0811 14.166C45.6208 13.8607 45.2653 13.4414 45.0146 12.9082C44.764 12.375 44.6387 11.7643 44.6387 11.0762V11.0625C44.6387 10.3743 44.764 9.76367 45.0146 9.23047C45.2699 8.69271 45.6299 8.27116 46.0947 7.96582C46.5596 7.65592 47.1133 7.50098 47.7559 7.50098C48.1022 7.50098 48.4212 7.55566 48.7129 7.66504C49.0046 7.77441 49.262 7.92936 49.4854 8.12988C49.7132 8.3304 49.9023 8.56966 50.0527 8.84766H50.1348V7.63086H51.3242V14.8975C51.3242 15.4443 51.1898 15.9206 50.9209 16.3262C50.6566 16.7318 50.2783 17.0439 49.7861 17.2627C49.2939 17.486 48.7129 17.5977 48.043 17.5977ZM47.9883 13.5645C48.444 13.5645 48.8337 13.4596 49.1572 13.25C49.4854 13.0358 49.736 12.7419 49.9092 12.3682C50.0869 11.9945 50.1758 11.5638 50.1758 11.0762V11.0625C50.1758 10.5749 50.0869 10.1419 49.9092 9.76367C49.736 9.38542 49.4854 9.08919 49.1572 8.875C48.8337 8.66081 48.444 8.55371 47.9883 8.55371C47.5326 8.55371 47.1452 8.66081 46.8262 8.875C46.5117 9.08919 46.2702 9.38542 46.1016 9.76367C45.9375 10.1419 45.8555 10.5749 45.8555 11.0625V11.0762C45.8555 11.5638 45.9375 11.9945 46.1016 12.3682C46.2702 12.7419 46.5117 13.0358 46.8262 13.25C47.1452 13.4596 47.5326 13.5645 47.9883 13.5645ZM56.5469 15.1299C55.8451 15.1299 55.2412 14.9749 54.7354 14.665C54.234 14.3551 53.8467 13.9176 53.5732 13.3525C53.3044 12.7829 53.1699 12.113 53.1699 11.3428V11.3359C53.1699 10.5749 53.3044 9.90723 53.5732 9.33301C53.8467 8.75879 54.2318 8.3099 54.7285 7.98633C55.2253 7.66276 55.8063 7.50098 56.4717 7.50098C57.1416 7.50098 57.7158 7.65592 58.1943 7.96582C58.6774 8.27572 59.0465 8.70866 59.3018 9.26465C59.5615 9.81608 59.6914 10.4587 59.6914 11.1924V11.6572H53.7852V10.707H59.083L58.4951 11.5752V11.1035C58.4951 10.5247 58.4085 10.0485 58.2354 9.6748C58.0622 9.30111 57.8229 9.02311 57.5176 8.84082C57.2122 8.65397 56.8613 8.56055 56.4648 8.56055C56.0684 8.56055 55.7129 8.65853 55.3984 8.85449C55.0885 9.0459 54.8424 9.33073 54.6602 9.70898C54.4779 10.0872 54.3867 10.5521 54.3867 11.1035V11.5752C54.3867 12.0993 54.4756 12.5482 54.6533 12.9219C54.8311 13.291 55.084 13.5758 55.4121 13.7764C55.7402 13.9723 56.1276 14.0703 56.5742 14.0703C56.9069 14.0703 57.1963 14.0247 57.4424 13.9336C57.6885 13.8424 57.8913 13.7262 58.0508 13.585C58.2103 13.4437 58.3219 13.3001 58.3857 13.1543L58.4131 13.0928H59.6025L59.5889 13.1475C59.5251 13.3981 59.4111 13.6419 59.2471 13.8789C59.0876 14.1113 58.8802 14.3232 58.625 14.5146C58.3698 14.7015 58.0667 14.8519 57.7158 14.9658C57.3695 15.0752 56.9798 15.1299 56.5469 15.1299ZM61.6055 15V4.70508H62.7949V15H61.6055ZM65.1055 15V7.63086H66.2949V15H65.1055ZM65.707 6.20898C65.4837 6.20898 65.29 6.12923 65.126 5.96973C64.9665 5.80566 64.8867 5.61198 64.8867 5.38867C64.8867 5.16081 64.9665 4.96712 65.126 4.80762C65.29 4.64811 65.4837 4.56836 65.707 4.56836C65.9349 4.56836 66.1286 4.64811 66.2881 4.80762C66.4476 4.96712 66.5273 5.16081 66.5273 5.38867C66.5273 5.61198 66.4476 5.80566 66.2881 5.96973C66.1286 6.12923 65.9349 6.20898 65.707 6.20898ZM68.5371 15V7.63086H69.7266V8.73828H69.8359C70.0228 8.34635 70.2917 8.04329 70.6426 7.8291C70.9935 7.61035 71.4401 7.50098 71.9824 7.50098C72.8118 7.50098 73.4476 7.73796 73.8896 8.21191C74.3363 8.68132 74.5596 9.35352 74.5596 10.2285V15H73.3701V10.5156C73.3701 9.85026 73.2288 9.35807 72.9463 9.03906C72.6683 8.71549 72.2354 8.55371 71.6475 8.55371C71.2555 8.55371 70.916 8.63802 70.6289 8.80664C70.3418 8.97526 70.1185 9.21452 69.959 9.52441C69.804 9.83431 69.7266 10.2057 69.7266 10.6387V15H68.5371ZM78.7363 15.1299C78.2715 15.1299 77.8522 15.041 77.4785 14.8633C77.1094 14.6855 76.8154 14.4326 76.5967 14.1045C76.3825 13.7764 76.2754 13.389 76.2754 12.9424V12.9287C76.2754 12.4912 76.3802 12.1175 76.5898 11.8076C76.7995 11.4932 77.1048 11.2471 77.5059 11.0693C77.9069 10.8916 78.3923 10.7868 78.9619 10.7549L81.6689 10.5908V11.541L79.1055 11.7051C78.5449 11.737 78.1348 11.8532 77.875 12.0537C77.6198 12.2542 77.4922 12.5368 77.4922 12.9014V12.915C77.4922 13.2887 77.6335 13.5804 77.916 13.79C78.1986 13.9951 78.554 14.0977 78.9824 14.0977C79.388 14.0977 79.748 14.0179 80.0625 13.8584C80.377 13.6943 80.623 13.4733 80.8008 13.1953C80.9831 12.9173 81.0742 12.6029 81.0742 12.252V9.95508C81.0742 9.49935 80.9352 9.15299 80.6572 8.91602C80.3838 8.67448 79.9714 8.55371 79.4199 8.55371C78.9779 8.55371 78.6156 8.63346 78.333 8.79297C78.0505 8.94792 77.8613 9.16895 77.7656 9.45605L77.7588 9.47656H76.5693L76.5762 9.43555C76.64 9.04818 76.7995 8.71094 77.0547 8.42383C77.3145 8.13216 77.6494 7.90658 78.0596 7.74707C78.4697 7.58301 78.9368 7.50098 79.4609 7.50098C80.0625 7.50098 80.5706 7.59896 80.9854 7.79492C81.4046 7.99089 81.7214 8.27344 81.9355 8.64258C82.1543 9.00716 82.2637 9.44466 82.2637 9.95508V15H81.0742V13.9131H80.9648C80.8099 14.1729 80.6208 14.3939 80.3975 14.5762C80.1787 14.7585 79.9303 14.8975 79.6523 14.9932C79.3743 15.0843 79.069 15.1299 78.7363 15.1299ZM90.0703 16.5996C89.1908 16.5996 88.3955 16.4674 87.6846 16.2031C86.9736 15.9388 86.3675 15.556 85.8662 15.0547C85.3649 14.5579 84.9798 13.9587 84.7109 13.2568C84.4421 12.555 84.3076 11.7689 84.3076 10.8984V10.8848C84.3076 10.0417 84.4421 9.27148 84.7109 8.57422C84.9844 7.87695 85.3717 7.27539 85.873 6.76953C86.3743 6.26367 86.9691 5.87402 87.6572 5.60059C88.3499 5.32715 89.1156 5.19043 89.9541 5.19043C91.0342 5.19043 91.9844 5.40462 92.8047 5.83301C93.6296 6.25684 94.2744 6.84701 94.7393 7.60352C95.2041 8.35547 95.4365 9.22591 95.4365 10.2148V10.2285C95.4365 10.9668 95.3317 11.6094 95.1221 12.1562C94.9124 12.6986 94.6139 13.1201 94.2266 13.4209C93.8438 13.7171 93.3903 13.8652 92.8662 13.8652C92.4743 13.8652 92.1393 13.765 91.8613 13.5645C91.5879 13.3594 91.4238 13.0905 91.3691 12.7578L91.3623 12.7168H91.2529C91.1071 13.0632 90.8861 13.332 90.5898 13.5234C90.2936 13.7103 89.945 13.8037 89.5439 13.8037C89.07 13.8037 88.653 13.6829 88.293 13.4414C87.9375 13.1953 87.6595 12.8558 87.459 12.4229C87.263 11.9899 87.165 11.484 87.165 10.9053V10.8916C87.165 10.3402 87.2653 9.85254 87.4658 9.42871C87.6709 9.00488 87.9512 8.67448 88.3066 8.4375C88.6667 8.19596 89.0791 8.0752 89.5439 8.0752C89.904 8.0752 90.2275 8.16178 90.5146 8.33496C90.8018 8.50814 91.0114 8.74284 91.1436 9.03906H91.2529V8.20508H92.2852V12.2178C92.2852 12.4548 92.3512 12.6416 92.4834 12.7783C92.6201 12.9105 92.8115 12.9766 93.0576 12.9766C93.3447 12.9766 93.5931 12.8626 93.8027 12.6348C94.0169 12.4069 94.181 12.0856 94.2949 11.6709C94.4134 11.2562 94.4727 10.7708 94.4727 10.2148V10.2012C94.4727 9.38086 94.279 8.65853 93.8916 8.03418C93.5042 7.40983 92.9642 6.92448 92.2715 6.57812C91.5788 6.22721 90.7767 6.05176 89.8652 6.05176C89.1953 6.05176 88.5801 6.17253 88.0195 6.41406C87.4635 6.65104 86.9782 6.98828 86.5635 7.42578C86.1533 7.86328 85.8343 8.37826 85.6064 8.9707C85.3831 9.56315 85.2715 10.2148 85.2715 10.9258V10.9395C85.2715 11.9102 85.4697 12.7555 85.8662 13.4756C86.2627 14.1911 86.821 14.7448 87.541 15.1367C88.2611 15.5332 89.1087 15.7314 90.084 15.7314C90.3984 15.7314 90.7015 15.7178 90.9932 15.6904C91.2894 15.6631 91.5583 15.6243 91.7998 15.5742C92.0413 15.5241 92.2327 15.4671 92.374 15.4033V16.2646C92.0687 16.3695 91.7155 16.4515 91.3145 16.5107C90.918 16.57 90.5033 16.5996 90.0703 16.5996ZM89.7012 12.8398C90.1706 12.8398 90.5443 12.6667 90.8223 12.3203C91.1003 11.974 91.2393 11.5114 91.2393 10.9326V10.9189C91.2393 10.3356 91.1003 9.87305 90.8223 9.53125C90.5488 9.18945 90.1797 9.01855 89.7148 9.01855C89.4095 9.01855 89.1475 9.09375 88.9287 9.24414C88.7145 9.39453 88.5482 9.61328 88.4297 9.90039C88.3158 10.1829 88.2588 10.5225 88.2588 10.9189V10.9326C88.2588 11.3245 88.3158 11.6641 88.4297 11.9512C88.5482 12.2383 88.7145 12.4593 88.9287 12.6143C89.1475 12.7646 89.4049 12.8398 89.7012 12.8398ZM100.297 15.1299C99.5951 15.1299 98.9912 14.9749 98.4854 14.665C97.984 14.3551 97.5967 13.9176 97.3232 13.3525C97.0544 12.7829 96.9199 12.113 96.9199 11.3428V11.3359C96.9199 10.5749 97.0544 9.90723 97.3232 9.33301C97.5967 8.75879 97.9818 8.3099 98.4785 7.98633C98.9753 7.66276 99.5563 7.50098 100.222 7.50098C100.892 7.50098 101.466 7.65592 101.944 7.96582C102.427 8.27572 102.797 8.70866 103.052 9.26465C103.312 9.81608 103.441 10.4587 103.441 11.1924V11.6572H97.5352V10.707H102.833L102.245 11.5752V11.1035C102.245 10.5247 102.159 10.0485 101.985 9.6748C101.812 9.30111 101.573 9.02311 101.268 8.84082C100.962 8.65397 100.611 8.56055 100.215 8.56055C99.8184 8.56055 99.4629 8.65853 99.1484 8.85449C98.8385 9.0459 98.5924 9.33073 98.4102 9.70898C98.2279 10.0872 98.1367 10.5521 98.1367 11.1035V11.5752C98.1367 12.0993 98.2256 12.5482 98.4033 12.9219C98.5811 13.291 98.834 13.5758 99.1621 13.7764C99.4902 13.9723 99.8776 14.0703 100.324 14.0703C100.657 14.0703 100.946 14.0247 101.192 13.9336C101.438 13.8424 101.641 13.7262 101.801 13.585C101.96 13.4437 102.072 13.3001 102.136 13.1543L102.163 13.0928H103.353L103.339 13.1475C103.275 13.3981 103.161 13.6419 102.997 13.8789C102.838 14.1113 102.63 14.3232 102.375 14.5146C102.12 14.7015 101.817 14.8519 101.466 14.9658C101.119 15.0752 100.73 15.1299 100.297 15.1299ZM104.426 15L106.948 11.3154L104.398 7.63086H105.8L107.55 10.3721H107.659L109.389 7.63086H110.722L108.22 11.2676L110.756 15H109.361L107.618 12.2178H107.509L105.759 15H104.426ZM114.379 15.1299C113.914 15.1299 113.495 15.041 113.121 14.8633C112.752 14.6855 112.458 14.4326 112.239 14.1045C112.025 13.7764 111.918 13.389 111.918 12.9424V12.9287C111.918 12.4912 112.023 12.1175 112.232 11.8076C112.442 11.4932 112.747 11.2471 113.148 11.0693C113.549 10.8916 114.035 10.7868 114.604 10.7549L117.312 10.5908V11.541L114.748 11.7051C114.188 11.737 113.777 11.8532 113.518 12.0537C113.262 12.2542 113.135 12.5368 113.135 12.9014V12.915C113.135 13.2887 113.276 13.5804 113.559 13.79C113.841 13.9951 114.197 14.0977 114.625 14.0977C115.031 14.0977 115.391 14.0179 115.705 13.8584C116.02 13.6943 116.266 13.4733 116.443 13.1953C116.626 12.9173 116.717 12.6029 116.717 12.252V9.95508C116.717 9.49935 116.578 9.15299 116.3 8.91602C116.026 8.67448 115.614 8.55371 115.062 8.55371C114.62 8.55371 114.258 8.63346 113.976 8.79297C113.693 8.94792 113.504 9.16895 113.408 9.45605L113.401 9.47656H112.212L112.219 9.43555C112.283 9.04818 112.442 8.71094 112.697 8.42383C112.957 8.13216 113.292 7.90658 113.702 7.74707C114.112 7.58301 114.579 7.50098 115.104 7.50098C115.705 7.50098 116.213 7.59896 116.628 7.79492C117.047 7.99089 117.364 8.27344 117.578 8.64258C117.797 9.00716 117.906 9.44466 117.906 9.95508V15H116.717V13.9131H116.607C116.452 14.1729 116.263 14.3939 116.04 14.5762C115.821 14.7585 115.573 14.8975 115.295 14.9932C115.017 15.0843 114.712 15.1299 114.379 15.1299ZM120.08 15V7.63086H121.27V8.75195H121.379C121.543 8.35547 121.794 8.04785 122.131 7.8291C122.473 7.61035 122.885 7.50098 123.368 7.50098C123.701 7.50098 123.999 7.55566 124.264 7.66504C124.528 7.77441 124.756 7.92708 124.947 8.12305C125.139 8.31445 125.291 8.53776 125.405 8.79297H125.515C125.647 8.5332 125.825 8.30762 126.048 8.11621C126.271 7.92025 126.529 7.76986 126.82 7.66504C127.117 7.55566 127.433 7.50098 127.771 7.50098C128.272 7.50098 128.696 7.5944 129.042 7.78125C129.393 7.9681 129.66 8.24154 129.842 8.60156C130.024 8.95703 130.115 9.39225 130.115 9.90723V15H128.926V10.1807C128.926 9.81608 128.869 9.5153 128.755 9.27832C128.646 9.03678 128.477 8.85677 128.249 8.73828C128.021 8.61523 127.734 8.55371 127.388 8.55371C127.046 8.55371 126.747 8.63118 126.492 8.78613C126.237 8.94108 126.039 9.14844 125.897 9.4082C125.756 9.66341 125.686 9.94824 125.686 10.2627V15H124.496V9.99609C124.496 9.70443 124.432 9.4515 124.305 9.2373C124.182 9.01855 124.004 8.84993 123.771 8.73145C123.544 8.61296 123.275 8.55371 122.965 8.55371C122.646 8.55371 122.356 8.63802 122.097 8.80664C121.841 8.97526 121.639 9.20312 121.488 9.49023C121.342 9.77279 121.27 10.0872 121.27 10.4336V15H120.08ZM132.262 17.4609V7.63086H133.451V8.80664H133.561C133.711 8.5332 133.9 8.30078 134.128 8.10938C134.356 7.91341 134.616 7.76302 134.907 7.6582C135.199 7.55339 135.516 7.50098 135.857 7.50098C136.482 7.50098 137.024 7.66048 137.484 7.97949C137.949 8.29395 138.309 8.736 138.564 9.30566C138.82 9.87533 138.947 10.543 138.947 11.3086V11.3223C138.947 12.0924 138.82 12.7624 138.564 13.332C138.309 13.9017 137.949 14.3438 137.484 14.6582C137.024 14.9727 136.482 15.1299 135.857 15.1299C135.52 15.1299 135.201 15.0775 134.9 14.9727C134.604 14.8633 134.34 14.7129 134.107 14.5215C133.88 14.3301 133.697 14.1022 133.561 13.8379H133.451V17.4609H132.262ZM135.584 14.0771C136.035 14.0771 136.42 13.9678 136.739 13.749C137.058 13.5257 137.302 13.209 137.471 12.7988C137.644 12.3841 137.73 11.8919 137.73 11.3223V11.3086C137.73 10.7344 137.644 10.2422 137.471 9.83203C137.302 9.42188 137.058 9.10742 136.739 8.88867C136.42 8.66536 136.035 8.55371 135.584 8.55371C135.137 8.55371 134.752 8.66536 134.429 8.88867C134.105 9.11198 133.857 9.42871 133.684 9.83887C133.51 10.249 133.424 10.7389 133.424 11.3086V11.3223C133.424 11.8874 133.51 12.3773 133.684 12.792C133.857 13.2021 134.105 13.5189 134.429 13.7422C134.752 13.9655 135.137 14.0771 135.584 14.0771ZM140.875 15V4.70508H142.064V15H140.875ZM147.355 15.1299C146.654 15.1299 146.05 14.9749 145.544 14.665C145.043 14.3551 144.655 13.9176 144.382 13.3525C144.113 12.7829 143.979 12.113 143.979 11.3428V11.3359C143.979 10.5749 144.113 9.90723 144.382 9.33301C144.655 8.75879 145.04 8.3099 145.537 7.98633C146.034 7.66276 146.615 7.50098 147.28 7.50098C147.95 7.50098 148.524 7.65592 149.003 7.96582C149.486 8.27572 149.855 8.70866 150.11 9.26465C150.37 9.81608 150.5 10.4587 150.5 11.1924V11.6572H144.594V10.707H149.892L149.304 11.5752V11.1035C149.304 10.5247 149.217 10.0485 149.044 9.6748C148.871 9.30111 148.632 9.02311 148.326 8.84082C148.021 8.65397 147.67 8.56055 147.273 8.56055C146.877 8.56055 146.521 8.65853 146.207 8.85449C145.897 9.0459 145.651 9.33073 145.469 9.70898C145.286 10.0872 145.195 10.5521 145.195 11.1035V11.5752C145.195 12.0993 145.284 12.5482 145.462 12.9219C145.64 13.291 145.893 13.5758 146.221 13.7764C146.549 13.9723 146.936 14.0703 147.383 14.0703C147.715 14.0703 148.005 14.0247 148.251 13.9336C148.497 13.8424 148.7 13.7262 148.859 13.585C149.019 13.4437 149.131 13.3001 149.194 13.1543L149.222 13.0928H150.411L150.397 13.1475C150.334 13.3981 150.22 13.6419 150.056 13.8789C149.896 14.1113 149.689 14.3232 149.434 14.5146C149.178 14.7015 148.875 14.8519 148.524 14.9658C148.178 15.0752 147.788 15.1299 147.355 15.1299ZM153.316 15.0684C153.075 15.0684 152.865 14.9818 152.688 14.8086C152.514 14.6309 152.428 14.4212 152.428 14.1797C152.428 13.9336 152.514 13.724 152.688 13.5508C152.865 13.3776 153.075 13.291 153.316 13.291C153.562 13.291 153.772 13.3776 153.945 13.5508C154.118 13.724 154.205 13.9336 154.205 14.1797C154.205 14.4212 154.118 14.6309 153.945 14.8086C153.772 14.9818 153.562 15.0684 153.316 15.0684ZM159.243 15.1299C158.555 15.1299 157.958 14.9727 157.452 14.6582C156.946 14.3438 156.554 13.8994 156.276 13.3252C155.998 12.751 155.859 12.0742 155.859 11.2949V11.2812C155.859 10.5156 155.996 9.85026 156.27 9.28516C156.548 8.72005 156.939 8.28255 157.445 7.97266C157.951 7.6582 158.548 7.50098 159.236 7.50098C159.833 7.50098 160.348 7.60579 160.781 7.81543C161.214 8.02507 161.561 8.30762 161.82 8.66309C162.08 9.014 162.246 9.4082 162.319 9.8457L162.326 9.88672H161.144L161.137 9.86621C161.046 9.50163 160.838 9.19173 160.515 8.93652C160.191 8.68132 159.765 8.55371 159.236 8.55371C158.794 8.55371 158.411 8.66536 158.088 8.88867C157.764 9.11198 157.514 9.42871 157.336 9.83887C157.163 10.2445 157.076 10.7253 157.076 11.2812V11.2949C157.076 11.86 157.165 12.3522 157.343 12.7715C157.521 13.1862 157.771 13.5075 158.095 13.7354C158.418 13.9632 158.799 14.0771 159.236 14.0771C159.733 14.0771 160.139 13.9701 160.453 13.7559C160.768 13.5417 160.993 13.2295 161.13 12.8193L161.144 12.7783L162.319 12.7715L162.306 12.8467C162.205 13.2887 162.028 13.6829 161.772 14.0293C161.517 14.3711 161.18 14.64 160.761 14.8359C160.341 15.0319 159.836 15.1299 159.243 15.1299ZM167.091 15.1299C166.394 15.1299 165.79 14.9772 165.279 14.6719C164.773 14.362 164.382 13.9222 164.104 13.3525C163.83 12.7829 163.693 12.1061 163.693 11.3223V11.3086C163.693 10.5202 163.83 9.84115 164.104 9.27148C164.382 8.70182 164.773 8.26432 165.279 7.95898C165.79 7.65365 166.394 7.50098 167.091 7.50098C167.793 7.50098 168.396 7.65365 168.902 7.95898C169.408 8.26432 169.798 8.70182 170.071 9.27148C170.349 9.84115 170.488 10.5202 170.488 11.3086V11.3223C170.488 12.1061 170.349 12.7829 170.071 13.3525C169.798 13.9222 169.408 14.362 168.902 14.6719C168.396 14.9772 167.793 15.1299 167.091 15.1299ZM167.091 14.0771C167.556 14.0771 167.95 13.9678 168.273 13.749C168.597 13.5303 168.843 13.2158 169.012 12.8057C169.185 12.3955 169.271 11.901 169.271 11.3223V11.3086C169.271 10.7253 169.185 10.2285 169.012 9.81836C168.843 9.4082 168.597 9.09603 168.273 8.88184C167.95 8.66309 167.556 8.55371 167.091 8.55371C166.626 8.55371 166.232 8.66309 165.908 8.88184C165.585 9.09603 165.336 9.4082 165.163 9.81836C164.994 10.2285 164.91 10.7253 164.91 11.3086V11.3223C164.91 11.901 164.994 12.3955 165.163 12.8057C165.336 13.2158 165.585 13.5303 165.908 13.749C166.232 13.9678 166.626 14.0771 167.091 14.0771ZM172.334 15V7.63086H173.523V8.75195H173.633C173.797 8.35547 174.048 8.04785 174.385 7.8291C174.727 7.61035 175.139 7.50098 175.622 7.50098C175.955 7.50098 176.253 7.55566 176.518 7.66504C176.782 7.77441 177.01 7.92708 177.201 8.12305C177.393 8.31445 177.545 8.53776 177.659 8.79297H177.769C177.901 8.5332 178.078 8.30762 178.302 8.11621C178.525 7.92025 178.783 7.76986 179.074 7.66504C179.37 7.55566 179.687 7.50098 180.024 7.50098C180.526 7.50098 180.95 7.5944 181.296 7.78125C181.647 7.9681 181.913 8.24154 182.096 8.60156C182.278 8.95703 182.369 9.39225 182.369 9.90723V15H181.18V10.1807C181.18 9.81608 181.123 9.5153 181.009 9.27832C180.899 9.03678 180.731 8.85677 180.503 8.73828C180.275 8.61523 179.988 8.55371 179.642 8.55371C179.3 8.55371 179.001 8.63118 178.746 8.78613C178.491 8.94108 178.293 9.14844 178.151 9.4082C178.01 9.66341 177.939 9.94824 177.939 10.2627V15H176.75V9.99609C176.75 9.70443 176.686 9.4515 176.559 9.2373C176.436 9.01855 176.258 8.84993 176.025 8.73145C175.798 8.61296 175.529 8.55371 175.219 8.55371C174.9 8.55371 174.61 8.63802 174.351 8.80664C174.095 8.97526 173.893 9.20312 173.742 9.49023C173.596 9.77279 173.523 10.0872 173.523 10.4336V15H172.334Z" fill="#DEDEDE"/>
</svg>
