<svg width="50" height="68" viewBox="0 0 50 68" fill="none" xmlns="http://www.w3.org/2000/svg">
<path d="M41.6666 48.8636C42.4692 48.8641 43.2408 49.2784 43.8216 50.0207C44.4024 50.7629 44.7479 51.7762 44.7865 52.8506C44.8251 53.925 44.5537 54.978 44.0288 55.7916C43.5038 56.6052 42.7654 57.1168 41.9666 57.2206L41.6666 57.2402H8.33331C7.53078 57.2396 6.75916 56.8253 6.17834 56.0831C5.59752 55.3408 5.25204 54.3275 5.21347 53.2531C5.1749 52.1788 5.44621 51.1257 5.97118 50.3122C6.49614 49.4986 7.23452 48.9869 8.03331 48.8831L8.33331 48.8636H41.6666ZM41.6666 29.3181C42.4954 29.3181 43.2903 29.7594 43.8764 30.5449C44.4624 31.3303 44.7916 32.3956 44.7916 33.5064C44.7916 34.6173 44.4624 35.6826 43.8764 36.468C43.2903 37.2535 42.4954 37.6947 41.6666 37.6947H8.33331C7.50451 37.6947 6.70966 37.2535 6.1236 36.468C5.53755 35.6826 5.20831 34.6173 5.20831 33.5064C5.20831 32.3956 5.53755 31.3303 6.1236 30.5449C6.70966 29.7594 7.50451 29.3181 8.33331 29.3181H41.6666ZM41.6666 9.77271C42.4954 9.77271 43.2903 10.214 43.8764 10.9994C44.4624 11.7849 44.7916 12.8502 44.7916 13.961C44.7916 15.0718 44.4624 16.1371 43.8764 16.9226C43.2903 17.7081 42.4954 18.1493 41.6666 18.1493H8.33331C7.50451 18.1493 6.70966 17.7081 6.1236 16.9226C5.53755 16.1371 5.20831 15.0718 5.20831 13.961C5.20831 12.8502 5.53755 11.7849 6.1236 10.9994C6.70966 10.214 7.50451 9.77271 8.33331 9.77271H41.6666Z" fill="white"/>
</svg>
