<svg width="32" height="32" viewBox="0 0 32 32" fill="none" xmlns="http://www.w3.org/2000/svg">
<path d="M2.66666 2.66669H4.98666C6.42666 2.66669 7.55999 3.90669 7.43999 5.33335L6.33332 18.6133C6.14666 20.7867 7.86665 22.6533 10.0533 22.6533H24.2533C26.1733 22.6533 27.8533 21.08 28 19.1734L28.72 9.17336C28.88 6.96003 27.2 5.16001 24.9733 5.16001H7.76" stroke="#DEDEDE" stroke-width="2" stroke-miterlimit="10" stroke-linecap="round" stroke-linejoin="round"/>
<path d="M21.6667 29.3333C22.5871 29.3333 23.3333 28.5871 23.3333 27.6667C23.3333 26.7462 22.5871 26 21.6667 26C20.7462 26 20 26.7462 20 27.6667C20 28.5871 20.7462 29.3333 21.6667 29.3333Z" stroke="#DEDEDE" stroke-width="2" stroke-miterlimit="10" stroke-linecap="round" stroke-linejoin="round"/>
<path d="M11 29.3333C11.9205 29.3333 12.6667 28.5871 12.6667 27.6667C12.6667 26.7462 11.9205 26 11 26C10.0795 26 9.33334 26.7462 9.33334 27.6667C9.33334 28.5871 10.0795 29.3333 11 29.3333Z" stroke="#DEDEDE" stroke-width="2" stroke-miterlimit="10" stroke-linecap="round" stroke-linejoin="round"/>
<path d="M12 10.6667H28" stroke="#DEDEDE" stroke-width="2" stroke-miterlimit="10" stroke-linecap="round" stroke-linejoin="round"/>
</svg>
