<svg width="32" height="32" viewBox="0 0 32 32" fill="none" xmlns="http://www.w3.org/2000/svg">
<path d="M25.2133 19.59C25.2133 21.31 26.6267 22.71 28.3467 22.71C28.3467 27.71 27.0933 28.9634 22.0933 28.9634H9.58668C4.58668 28.9634 3.33334 27.71 3.33334 22.71V22.0967C5.05334 22.0967 6.46668 20.6834 6.46668 18.9634C6.46668 17.2434 5.05334 15.83 3.33334 15.83V15.2167C3.34668 10.2167 4.58668 8.96338 9.58668 8.96338H22.08C27.08 8.96338 28.3333 10.2167 28.3333 15.2167V16.47C26.6133 16.47 25.2133 17.8567 25.2133 19.59Z" stroke="#DEDEDE" stroke-width="2" stroke-linecap="round" stroke-linejoin="round"/>
<path d="M21.6148 8.96329H9.49478L13.4014 5.05663C16.5881 1.86996 18.1881 1.86996 21.3748 5.05663L22.1748 5.85663C21.3348 6.69663 21.1348 7.93663 21.6148 8.96329Z" stroke="#DEDEDE" stroke-width="2" stroke-linecap="round" stroke-linejoin="round"/>
<path d="M13.1719 8.9635L13.1719 28.9635" stroke="#DEDEDE" stroke-width="2" stroke-linecap="round" stroke-linejoin="round" stroke-dasharray="6.67 6.67"/>
</svg>
