<svg width="25" height="24" viewBox="0 0 25 24" fill="none" xmlns="http://www.w3.org/2000/svg">
<path d="M15.9999 9.33336L15.0133 9.16936C14.9894 9.31261 14.9971 9.45933 15.0357 9.59932C15.0743 9.7393 15.143 9.8692 15.2369 9.97997C15.3308 10.0907 15.4477 10.1797 15.5795 10.2408C15.7112 10.3018 15.8547 10.3334 15.9999 10.3334V9.33336ZM1.33325 9.33336V8.33336C1.06804 8.33336 0.813681 8.43872 0.626145 8.62626C0.438609 8.81379 0.333252 9.06815 0.333252 9.33336H1.33325ZM3.99992 23.6667H19.1466V21.6667H3.99992V23.6667ZM20.7466 8.33336H15.9999V10.3334H20.7466V8.33336ZM16.9866 9.49736L18.0613 3.0507L16.0879 2.72136L15.0133 9.16936L16.9866 9.49736ZM15.7599 0.333364H15.4746V2.33336H15.7586L15.7599 0.333364ZM11.3133 2.56003L7.95992 7.5907L9.62392 8.70003L12.9773 3.66936L11.3133 2.56003ZM6.57325 8.33336H1.33325V10.3334H6.57325V8.33336ZM0.333252 9.33336V20H2.33325V9.33336H0.333252ZM22.7426 20.72L24.3426 12.72L22.3826 12.3267L20.7826 20.3267L22.7426 20.72ZM7.95992 7.5907C7.80779 7.81908 7.60161 8.00502 7.35971 8.13458C7.11781 8.26414 6.84766 8.33196 6.57325 8.33203V10.332C7.79992 10.332 8.94392 9.72003 9.62392 8.70003L7.95992 7.5907ZM18.0613 3.0507C18.1168 2.71652 18.0989 2.37292 18.0089 2.04635C17.9188 1.71978 17.7587 1.41674 17.5397 1.15829C17.3207 0.899828 17.0481 0.692157 16.7407 0.549701C16.4334 0.407246 16.0987 0.333424 15.7599 0.333364L15.7586 2.33336C15.8069 2.33348 15.856 2.34411 15.8998 2.36451C15.9436 2.38491 15.9825 2.41459 16.0137 2.4515C16.0449 2.48841 16.0677 2.53166 16.0805 2.57826C16.0933 2.62486 16.0958 2.67369 16.0879 2.72136L18.0613 3.0507ZM20.7466 10.332C21.7999 10.332 22.5866 11.2947 22.3813 12.3254L24.3426 12.7187C24.4487 12.1868 24.4355 11.6367 24.3039 11.1105C24.1723 10.5844 23.9257 10.094 23.5817 9.67464C23.2378 9.25531 22.8051 8.9175 22.3148 8.68556C21.8246 8.45363 21.2889 8.33334 20.7466 8.33336V10.332ZM19.1466 23.6667C19.9942 23.6669 20.8157 23.372 21.4713 22.8348C22.1269 22.2976 22.5761 21.5498 22.7426 20.7187L20.7826 20.3254C20.707 20.7035 20.5026 21.0437 20.2043 21.2881C19.906 21.5324 19.5322 21.6671 19.1466 21.6667V23.6667ZM15.4746 0.333364C14.6515 0.333424 13.8411 0.535358 13.1154 0.923791C12.3897 1.31222 11.7711 1.87381 11.3146 2.5587L12.9773 3.66936C13.2513 3.25824 13.6227 2.91984 14.0583 2.68677C14.494 2.4537 14.9805 2.33318 15.4746 2.33336V0.333364ZM3.99992 21.6667C3.07992 21.6667 2.33325 20.92 2.33325 20H0.333252C0.333252 20.9725 0.71956 21.9051 1.40719 22.5928C2.09483 23.2804 3.02746 23.6667 3.99992 23.6667V21.6667Z" fill="white"/>
<path d="M6.6665 9.33325V22.6666" stroke="white" stroke-width="1.5"/>
</svg>
