<svg width="16" height="16" viewBox="0 0 16 16" fill="none" xmlns="http://www.w3.org/2000/svg">
<g id="vuesax/linear/video">
<g id="video">
<path id="Vector" d="M8.3535 13.6133H4.14016C2.0335 13.6133 1.3335 12.2133 1.3335 10.8067V5.19334C1.3335 3.08667 2.0335 2.38667 4.14016 2.38667H8.3535C10.4602 2.38667 11.1602 3.08667 11.1602 5.19334V10.8067C11.1602 12.9133 10.4535 13.6133 8.3535 13.6133Z" stroke="#F2F2F2" stroke-linecap="round" stroke-linejoin="round"/>
<path id="Vector_2" d="M13.0135 11.4L11.1602 10.1V5.89333L13.0135 4.59333C13.9202 3.96 14.6668 4.34666 14.6668 5.46V10.54C14.6668 11.6533 13.9202 12.04 13.0135 11.4Z" stroke="#F2F2F2" stroke-linecap="round" stroke-linejoin="round"/>
<path id="Vector_3" d="M7.6665 7.33333C8.21879 7.33333 8.6665 6.88561 8.6665 6.33333C8.6665 5.78104 8.21879 5.33333 7.6665 5.33333C7.11422 5.33333 6.6665 5.78104 6.6665 6.33333C6.6665 6.88561 7.11422 7.33333 7.6665 7.33333Z" stroke="#F2F2F2" stroke-linecap="round" stroke-linejoin="round"/>
</g>
</g>
</svg>
