<svg width="30" height="39" viewBox="0 0 40 49" fill="none" xmlns="http://www.w3.org/2000/svg">
<path d="M36.6666 39.8636C37.4692 39.8641 38.2408 40.2784 38.8216 41.0207C39.4024 41.7629 39.7479 42.7762 39.7865 43.8506C39.8251 44.925 39.5537 45.978 39.0288 46.7916C38.5038 47.6052 37.7654 48.1168 36.9666 48.2206L36.6666 48.2402H3.33331C2.53078 48.2396 1.75916 47.8253 1.17834 47.0831C0.597524 46.3408 0.252038 45.3275 0.213471 44.2531C0.174904 43.1788 0.446213 42.1257 0.971178 41.3122C1.49614 40.4986 2.23452 39.9869 3.03331 39.8831L3.33331 39.8636H36.6666ZM36.6666 20.3181C37.4954 20.3181 38.2903 20.7594 38.8764 21.5449C39.4624 22.3303 39.7916 23.3956 39.7916 24.5064C39.7916 25.6173 39.4624 26.6826 38.8764 27.468C38.2903 28.2535 37.4954 28.6947 36.6666 28.6947H3.33331C2.50451 28.6947 1.70966 28.2535 1.1236 27.468C0.537553 26.6826 0.208313 25.6173 0.208313 24.5064C0.208313 23.3956 0.537553 22.3303 1.1236 21.5449C1.70966 20.7594 2.50451 20.3181 3.33331 20.3181H36.6666ZM36.6666 0.772705C37.4954 0.772705 38.2903 1.21397 38.8764 1.99943C39.4624 2.78489 39.7916 3.8502 39.7916 4.96101C39.7916 6.07182 39.4624 7.13713 38.8764 7.92259C38.2903 8.70805 37.4954 9.14932 36.6666 9.14932H3.33331C2.50451 9.14932 1.70966 8.70805 1.1236 7.92259C0.537553 7.13713 0.208313 6.07182 0.208313 4.96101C0.208313 3.8502 0.537553 2.78489 1.1236 1.99943C1.70966 1.21397 2.50451 0.772705 3.33331 0.772705H36.6666Z" fill="white"/>
</svg>
