<svg width="50" height="50" viewBox="0 0 82 74" fill="none" xmlns="http://www.w3.org/2000/svg">
<path d="M65.4547 45.0939L65.4569 45.0972C66.6515 46.8663 66.8584 48.9438 66.0697 50.8326C65.2735 52.7396 63.6124 54.2244 61.4236 54.8734L61.4197 54.8746C54.865 56.8565 47.9684 57.8333 41.0685 57.8333C34.1686 57.8333 27.2731 56.8565 20.7203 54.8447L20.7188 54.8442C18.3539 54.1232 16.6182 52.6507 15.9014 50.8449L15.9014 50.8449L15.8989 50.8387C15.1507 49.0022 15.4006 46.9806 16.6486 45.0931C16.649 45.0925 16.6494 45.0919 16.6498 45.0913L20.0982 39.9458L20.0982 39.9459L20.105 39.9354C20.5163 39.2992 20.8827 38.409 21.1456 37.5362C21.408 36.6653 21.5918 35.7308 21.5918 34.9958V27.195C21.5918 20.3827 25.9866 14.4273 32.4239 11.5375L32.6334 11.4435L32.7543 11.2483C34.3836 8.6188 37.4804 6.91663 40.966 6.91663C44.4917 6.91663 47.5189 8.56211 49.1453 11.1589L49.2695 11.3571L49.4842 11.4496C56.0522 14.2792 60.5451 20.2937 60.5451 27.195V34.9958C60.5451 35.7308 60.7289 36.6652 60.991 37.5392C61.254 38.4162 61.6194 39.3105 62.0269 39.9584L62.0323 39.967L62.038 39.9755L65.4547 45.0939Z" fill="#F2F2F2" stroke="#F2F2F2" stroke-width="1.5"/>
<path d="M34.2408 64.5166C33.5902 63.9661 33.0427 63.2903 32.6198 62.5626C32.625 62.5633 32.6303 62.564 32.6355 62.5646L32.6355 62.5647L32.6437 62.5656C33.4301 62.6582 34.2631 62.7523 35.0995 62.8152C37.0627 62.9706 39.0639 63.0641 41.0681 63.0641C43.039 63.0641 45.0069 62.9705 46.9366 62.815L46.9366 62.815L46.9406 62.8147C47.1509 62.7966 47.3716 62.7807 47.5971 62.7644C48.0892 62.7289 48.6047 62.6917 49.087 62.6268C49.1865 62.6156 49.286 62.6044 49.3857 62.5931C47.7814 65.2455 44.644 67.0833 40.9997 67.0833C38.4734 67.0833 35.9967 66.1575 34.2687 64.5414L34.2551 64.5286L34.2408 64.5166Z" fill="#F2F2F2" stroke="#F2F2F2" stroke-width="1.5"/>
</svg>
