<svg width="40" height="40" viewBox="0 0 51 50" fill="none" xmlns="http://www.w3.org/2000/svg">
<path d="M41.125 26.0417C41.125 23.1667 43.4583 20.8334 46.3333 20.8334V18.75C46.3333 10.4167 44.25 8.33337 35.9166 8.33337H15.0833C6.74996 8.33337 4.66663 10.4167 4.66663 18.75V19.7917C7.54163 19.7917 9.87496 22.125 9.87496 25C9.87496 27.875 7.54163 30.2084 4.66663 30.2084V31.25C4.66663 39.5834 6.74996 41.6667 15.0833 41.6667H35.9166C44.25 41.6667 46.3333 39.5834 46.3333 31.25C43.4583 31.25 41.125 28.9167 41.125 26.0417Z" stroke="black" stroke-width="1.75" stroke-linecap="round" stroke-linejoin="round"/>
<path d="M21.3334 8.33337L21.3334 41.6667" stroke="black" stroke-width="1.75" stroke-linecap="round" stroke-linejoin="round" stroke-dasharray="5.83 5.83"/>
</svg>
