<svg width="24" height="25" viewBox="0 0 24 25" fill="none" xmlns="http://www.w3.org/2000/svg">
<g clip-path="url(#clip0_6_867)">
<path d="M14.3085 10.0896V10.0933C14.2343 10.0461 14.082 10.0228 13.8908 10.0228V14.8393C14.16 14.8393 14.328 14.7771 14.391 14.6713C14.4533 14.5701 14.4848 14.2693 14.4848 13.7886V10.9213C14.4848 10.5928 14.481 10.3821 14.4533 10.2921C14.43 10.1946 14.3865 10.1278 14.3123 10.0888L14.3085 10.0896ZM22.4138 0.500079H1.62075C1.20268 0.524133 0.807646 0.699512 0.509403 0.993477C0.211161 1.28744 0.030092 1.6799 0 2.09758L0 22.8786C0.0585 23.7538 0.711 24.4213 1.55475 24.4956C1.5705 24.4993 1.58625 24.4993 1.602 24.4993H22.446C22.8707 24.4567 23.2647 24.2583 23.5518 23.9424C23.8389 23.6265 23.9988 23.2155 24.0008 22.7886V2.21008C23.9986 1.7781 23.8344 1.36265 23.5407 1.04588C23.247 0.729107 22.8451 0.53407 22.4145 0.499329L22.4138 0.500079ZM4.79325 16.1248H2.88675V8.76133H4.79325V16.1248ZM11.3318 16.1248H9.67125V11.1523L8.99925 16.1211H7.812L7.113 11.2618L7.1055 16.1211H5.44125V8.76133H7.90575C7.992 9.28108 8.06625 9.80833 8.136 10.3356L8.40525 12.2031L8.85075 8.76133H11.331L11.3318 16.1248ZM16.3088 13.9453C16.3088 14.5978 16.266 15.0388 16.203 15.2653C16.155 15.4695 16.0411 15.6521 15.879 15.7851C15.7154 15.9217 15.5189 16.0132 15.309 16.0506C15.0863 16.0933 14.739 16.1248 14.2898 16.1248L14.286 16.1211H11.9813V8.76133H13.407C14.3213 8.76133 14.856 8.80858 15.1763 8.88658C15.5003 8.97658 15.7508 9.11308 15.9225 9.30883C16.0868 9.48883 16.1963 9.71083 16.2353 9.95308C16.2863 10.1878 16.3095 10.6566 16.3095 11.3556L16.3088 13.9453ZM21.2543 14.4178C21.2543 14.8671 21.207 15.1836 21.1643 15.4101C21.102 15.6328 20.9693 15.8121 20.7578 15.9763C20.5313 16.1443 20.277 16.2186 19.9763 16.2186C19.7573 16.2186 19.476 16.1563 19.2968 16.0821C19.097 15.9759 18.9214 15.8296 18.7808 15.6523L18.6675 16.1248H16.9485V8.76133L16.929 8.75758H18.7298V11.1561C18.8783 10.9806 19.0463 10.8478 19.2375 10.7578C19.4584 10.6736 19.6926 10.6299 19.929 10.6288C20.1555 10.6288 20.3783 10.6641 20.589 10.7458C20.7608 10.8163 20.9093 10.9296 21.0263 11.0743C21.1163 11.1996 21.1748 11.3436 21.2063 11.4966C21.2333 11.6331 21.249 11.9263 21.249 12.3636V14.4186L21.2543 14.4178ZM19.0785 11.7036C18.9615 11.7036 18.8873 11.7463 18.8558 11.8243C18.8243 11.9061 18.7973 12.1131 18.7973 12.4491V14.3946C18.7973 14.7186 18.8243 14.9301 18.8558 15.0193C18.8759 15.0616 18.9083 15.0968 18.9486 15.1205C18.989 15.1441 19.0356 15.1551 19.0823 15.1521C19.1993 15.1521 19.3515 15.1048 19.383 15.0111C19.41 14.9136 19.4258 14.6908 19.4258 14.3391L19.4573 14.3353V12.4446C19.4573 12.1438 19.4415 11.9368 19.3988 11.8431C19.3515 11.7418 19.2038 11.7021 19.0823 11.7021L19.0785 11.7036Z" fill="#FFD600"/>
</g>
<defs>
<clipPath id="clip0_6_867">
<rect width="24" height="24" fill="white" transform="translate(0 0.5)"/>
</clipPath>
</defs>
</svg>
