<svg width="40" height="40" viewBox="0 0 50 50" fill="none" xmlns="http://www.w3.org/2000/svg">
<path d="M26.1041 42.5417H12.9375C6.35413 42.5417 4.16663 38.1667 4.16663 33.7709V16.2292C4.16663 9.64587 6.35413 7.45837 12.9375 7.45837H26.1041C32.6875 7.45837 34.875 9.64587 34.875 16.2292V33.7709C34.875 40.3542 32.6666 42.5417 26.1041 42.5417Z" stroke="black" stroke-width="1.75" stroke-linecap="round" stroke-linejoin="round"/>
<path d="M40.6667 35.625L34.875 31.5625V18.4167L40.6667 14.3542C43.5 12.375 45.8333 13.5834 45.8333 17.0625V32.9375C45.8333 36.4167 43.5 37.625 40.6667 35.625Z" stroke="black" stroke-width="1.75" stroke-linecap="round" stroke-linejoin="round"/>
<path d="M23.9583 22.9166C25.6841 22.9166 27.0833 21.5175 27.0833 19.7916C27.0833 18.0657 25.6841 16.6666 23.9583 16.6666C22.2324 16.6666 20.8333 18.0657 20.8333 19.7916C20.8333 21.5175 22.2324 22.9166 23.9583 22.9166Z" stroke="black" stroke-width="1.75" stroke-linecap="round" stroke-linejoin="round"/>
</svg>
