<svg width="25" height="25" viewBox="0 0 25 25" fill="none" xmlns="http://www.w3.org/2000/svg">
<g clip-path="url(#clip0_6_872)">
<path d="M12.5 24.5C9.3174 24.5 6.26516 23.2357 4.01472 20.9853C1.76428 18.7348 0.5 15.6826 0.5 12.5C0.5 9.3174 1.76428 6.26516 4.01472 4.01472C6.26516 1.76428 9.3174 0.5 12.5 0.5C15.6826 0.5 18.7348 1.76428 20.9853 4.01472C23.2357 6.26516 24.5 9.3174 24.5 12.5C24.5 15.6826 23.2357 18.7348 20.9853 20.9853C18.7348 23.2357 15.6826 24.5 12.5 24.5ZM12.5 22.1C15.0461 22.1 17.4879 21.0886 19.2882 19.2882C21.0886 17.4879 22.1 15.0461 22.1 12.5C22.1 9.95392 21.0886 7.51212 19.2882 5.71178C17.4879 3.91143 15.0461 2.9 12.5 2.9C9.95392 2.9 7.51212 3.91143 5.71178 5.71178C3.91143 7.51212 2.9 9.95392 2.9 12.5C2.9 15.0461 3.91143 17.4879 5.71178 19.2882C7.51212 21.0886 9.95392 22.1 12.5 22.1ZM11.3 12.992V5.3H13.7V12.008L18.44 16.748L16.748 18.44L11.3 12.992Z" fill="#FFD600"/>
</g>
<defs>
<clipPath id="clip0_6_872">
<rect width="24" height="24" fill="white" transform="translate(0.5 0.5)"/>
</clipPath>
</defs>
</svg>
