<svg width="21" height="20" viewBox="0 0 21 20" fill="none" xmlns="http://www.w3.org/2000/svg">
<g id="mdi:twitter">
<path id="Vector" d="M19.1476 5.00001C18.4956 5.29168 17.7928 5.48334 17.0646 5.57501C17.8097 5.13334 18.3855 4.43334 18.6565 3.59168C17.9537 4.00834 17.1746 4.30001 16.3533 4.46668C15.6843 3.75001 14.7444 3.33334 13.6775 3.33334C11.6875 3.33334 10.0617 4.93334 10.0617 6.90834C10.0617 7.19168 10.0956 7.46668 10.1549 7.72501C7.14036 7.57501 4.45609 6.15001 2.6694 3.99168C2.35609 4.51668 2.17827 5.13334 2.17827 5.78334C2.17827 7.02501 2.81335 8.12501 3.79561 8.75001C3.1944 8.75001 2.63552 8.58334 2.1444 8.33334V8.35834C2.1444 10.0917 3.39762 11.5417 5.0573 11.8667C4.52445 12.0102 3.96504 12.0302 3.42303 11.925C3.65301 12.6354 4.10344 13.257 4.71098 13.7025C5.31853 14.1479 6.05264 14.3948 6.81012 14.4083C5.5261 15.4087 3.93447 15.9494 2.29682 15.9417C2.00891 15.9417 1.72101 15.925 1.43311 15.8917C3.04198 16.9083 4.95569 17.5 7.00488 17.5C13.6775 17.5 17.344 12.05 17.344 7.32501C17.344 7.16668 17.344 7.01668 17.3355 6.85834C18.0468 6.35834 18.6565 5.72501 19.1476 5.00001Z" fill="white"/>
</g>
</svg>
