<svg width="21" height="20" viewBox="0 0 21 20" fill="none" xmlns="http://www.w3.org/2000/svg">
<g id="ri:linkedin-box-fill">
<path id="Vector" d="M16.0903 15.2825H13.8336V11.8017C13.8336 10.9717 13.8167 9.90333 12.6566 9.90333C11.4804 9.90333 11.3009 10.8067 11.3009 11.7408V15.2825H9.04341V8.125H11.2112V9.1H11.2408C11.5439 8.53833 12.2806 7.94417 13.3814 7.94417C15.6677 7.94417 16.0911 9.42583 16.0911 11.3533V15.2825H16.0903ZM6.49462 7.14583C6.32235 7.14605 6.15172 7.11281 5.99253 7.04801C5.83334 6.9832 5.68872 6.88812 5.56694 6.7682C5.44516 6.64828 5.34864 6.50588 5.28289 6.34918C5.21715 6.19247 5.18348 6.02454 5.18381 5.855C5.18398 5.59986 5.26102 5.3505 5.40519 5.13846C5.54936 4.92641 5.75419 4.76119 5.99378 4.66371C6.23336 4.56623 6.49693 4.54085 6.75117 4.59078C7.00541 4.64072 7.23889 4.76373 7.4221 4.94426C7.6053 5.12478 7.72999 5.35472 7.7804 5.60498C7.83082 5.85525 7.80469 6.11461 7.70532 6.35026C7.60595 6.58592 7.43781 6.78728 7.22216 6.92889C7.0065 7.0705 6.75302 7.146 6.49377 7.14583H6.49462ZM7.62591 15.2825H5.36248V8.125H7.62675V15.2825H7.62591ZM17.2207 2.5H4.23034C3.60712 2.5 3.10498 2.98333 3.10498 3.58083V16.4192C3.10498 17.0167 3.60796 17.5 4.2295 17.5H17.2173C17.8389 17.5 18.3469 17.0167 18.3469 16.4192V3.58083C18.3469 2.98333 17.8389 2.5 17.2173 2.5H17.2199H17.2207Z" fill="white"/>
</g>
</svg>
