<svg width="21" height="20" viewBox="0 0 21 20" fill="none" xmlns="http://www.w3.org/2000/svg">
<g id="ph:instagram-logo">
<path id="Vector" d="M10.1614 6.25C9.40777 6.25 8.67105 6.46993 8.04442 6.88199C7.41779 7.29404 6.92939 7.87971 6.64098 8.56494C6.35257 9.25016 6.27711 10.0042 6.42414 10.7316C6.57117 11.459 6.93408 12.1272 7.46699 12.6517C7.9999 13.1761 8.67886 13.5333 9.41802 13.6779C10.1572 13.8226 10.9233 13.7484 11.6196 13.4645C12.3159 13.1807 12.911 12.7001 13.3297 12.0834C13.7484 11.4667 13.9719 10.7417 13.9719 10C13.9719 9.00544 13.5704 8.05161 12.8558 7.34835C12.1412 6.64509 11.172 6.25 10.1614 6.25ZM10.1614 12.5C9.65898 12.5 9.16783 12.3534 8.75008 12.0787C8.33233 11.804 8.00673 11.4135 7.81446 10.9567C7.62219 10.4999 7.57188 9.99723 7.6699 9.51227C7.76792 9.02732 8.00986 8.58186 8.36513 8.23223C8.7204 7.8826 9.17304 7.6445 9.66582 7.54804C10.1586 7.45157 10.6694 7.50108 11.1335 7.6903C11.5977 7.87952 11.9945 8.19995 12.2736 8.61107C12.5527 9.0222 12.7017 9.50555 12.7017 10C12.6996 10.6624 12.4313 11.2971 11.9554 11.7655C11.4794 12.2339 10.8345 12.4979 10.1614 12.5ZM13.6544 2.1875H6.66846C5.48943 2.1875 4.35868 2.64844 3.52498 3.46891C2.69127 4.28938 2.2229 5.40218 2.2229 6.5625V13.4375C2.2229 14.5978 2.69127 15.7106 3.52498 16.5311C4.35868 17.3516 5.48943 17.8125 6.66846 17.8125H13.6544C14.8334 17.8125 15.9641 17.3516 16.7978 16.5311C17.6315 15.7106 18.0999 14.5978 18.0999 13.4375V6.5625C18.0999 5.40218 17.6315 4.28938 16.7978 3.46891C15.9641 2.64844 14.8334 2.1875 13.6544 2.1875ZM16.8298 13.4375C16.8298 13.8479 16.7476 14.2542 16.588 14.6334C16.4285 15.0125 16.1946 15.357 15.8997 15.6472C15.6048 15.9374 15.2548 16.1676 14.8695 16.3246C14.4843 16.4817 14.0714 16.5625 13.6544 16.5625H6.66846C6.25146 16.5625 5.83855 16.4817 5.45329 16.3246C5.06803 16.1676 4.71798 15.9374 4.42312 15.6472C4.12825 15.357 3.89435 15.0125 3.73477 14.6334C3.5752 14.2542 3.49306 13.8479 3.49306 13.4375V6.5625C3.49306 5.7337 3.82761 4.93884 4.42312 4.35279C5.01862 3.76674 5.8263 3.4375 6.66846 3.4375H13.6544C14.0714 3.4375 14.4843 3.51833 14.8695 3.67538C15.2548 3.83242 15.6048 4.06261 15.8997 4.35279C16.1946 4.64297 16.4285 4.98747 16.588 5.36661C16.7476 5.74576 16.8298 6.15212 16.8298 6.5625V13.4375ZM15.2421 5.9375C15.2421 6.12292 15.1862 6.30418 15.0815 6.45835C14.9768 6.61252 14.8281 6.73268 14.654 6.80364C14.4799 6.87459 14.2884 6.89316 14.1036 6.85699C13.9188 6.82081 13.7491 6.73152 13.6158 6.60041C13.4826 6.4693 13.3919 6.30225 13.3551 6.1204C13.3184 5.93854 13.3372 5.75004 13.4093 5.57873C13.4814 5.40743 13.6035 5.26101 13.7602 5.158C13.9168 5.05498 14.101 5 14.2894 5C14.5421 5 14.7844 5.09877 14.963 5.27459C15.1417 5.4504 15.2421 5.68886 15.2421 5.9375Z" fill="white"/>
</g>
</svg>
